# xmcd CD database file
#
# Track frame offsets:
#	150
#	23142
#	34167
#
# Disc length: 759 seconds
#
# Revision: 0
# Processed by: cddbd v1.5.1PL0 Copyright (c) Steve Scherf et al.
# Submitted via: CDex 1.51
#
DISCID=1b02f503
DTITLE=荒木真樹彦 - LANTIS　-誘惑の未来-
DYEAR=1993
DGENRE=J-POP
TTITLE0=LANTIS　-誘惑の未来-
TTITLE1=BLACK
TTITLE2=LANTIS　-誘惑の未来-　（original karaoke）
EXTD=YEAR: 1993
EXTT0=
EXTT1=
EXTT2=
PLAYORDER=
